<?xml version="1.0" encoding="UTF-8"?>
<svg width="48px" height="48px" viewBox="0 0 48 48" version="1.1" xmlns="http://www.w3.org/2000/svg" xmlns:xlink="http://www.w3.org/1999/xlink">
    <!-- Generator: Sketch 55.1 (78136) - https://sketchapp.com -->
    <title>icon-头像-默认头像-男</title>
    <desc>Created with Sketch.</desc>
    <defs>
        <radialGradient cx="50.00125%" cy="49.99625%" fx="50.00125%" fy="49.99625%" r="50%" id="radialGradient-1">
            <stop stop-color="#FFFFFF" offset="0%"></stop>
            <stop stop-color="#F8F8F8" offset="100%"></stop>
        </radialGradient>
        <linearGradient x1="1.06108234%" y1="50.0157813%" x2="99.0183068%" y2="50.0157813%" id="linearGradient-2">
            <stop stop-color="#00A4FF" offset="0%"></stop>
            <stop stop-color="#006EFF" offset="100%"></stop>
        </linearGradient>
    </defs>
    <g id="Page-1" stroke="none" stroke-width="1" fill="none" fill-rule="evenodd">
        <g id="总览页-账号信息模块" transform="translate(-987.000000, -260.000000)" fill-rule="nonzero">
            <g id="编组-3" transform="translate(967.000000, 240.000000)">
                <g id="个人信息">
                    <g id="2019更新-icon-头像-默认头像-男的副本" transform="translate(20.000000, 20.000000)">
                        <g id="Page-1">
                            <g id="icon-头像-默认头像-男">
                                <rect id="Rectangle-path" fill="url(#radialGradient-1)" x="0" y="0" width="48" height="48"></rect>
                                <path d="M38.8125,48 C38.475,45.3375 32.025,43.2 24,43.2 C15.975,43.2 9.525,45.3375 9.1875,48 L38.8125,48 Z" id="Shape" fill="url(#linearGradient-2)"></path>
                                <g id="Group" transform="translate(9.600000, 16.800000)" fill="#222222">
                                    <polygon id="Shape_1_" points="0 0.4125 1.2 11.5875 2.4 11.5875 2.4 0 0 0"></polygon>
                                    <polygon id="Shape_2_" points="26.4 0.4125 26.4 12 27.6 12 28.8 0.7875 28.8 0.4125"></polygon>
                                </g>
                                <path d="M29.775,48 C29.175,44.7375 28.9875,42.6 29.25,41.5875 C29.625,40.05 18.6375,39.9 18.75,41.5875 C18.825,42.7125 18.6375,44.85 18.225,48 L29.775,48 Z" id="Shape_3_" fill="#FFDFDD"></path>
                                <path d="M13.8,24.7875 C12.825,24.3 9,23.55 9,27.1875 C9,30.7875 11.0625,31.65 11.8125,32.4 C12.525,33.1125 14.775,33.525 15,32.8125 C15.225,32.1 14.775,25.275 13.8,24.7875 Z M33.9,24.7875 C32.925,25.275 32.475,32.0625 32.7,32.775 C32.925,33.4875 35.1375,33.1125 35.85,32.3625 C36.5625,31.65 38.625,30.75 38.625,27.15 C38.6625,23.55 34.8375,24.3 33.9,24.7875 Z" id="Shape_4_" fill="#FFDFDD"></path>
                                <path d="M24.4125,43.6125 C24.2625,43.6125 24,43.6125 24,43.6125 C24,43.6125 23.775,43.6125 23.5875,43.6125 C16.3875,43.6125 12,35.7375 12,21.8625 L12,13.5 L36,13.5 L36,21.825 C36,35.7 31.6125,43.6125 24.4125,43.6125 Z" id="Shape_5_" fill="#FFF2F1"></path>
                                <path d="M36.4125,17.5875 L36.4125,21.15 C35.6625,21.15 34.875,20.9625 34.575,20.5125 C34.1625,19.875 33.2625,18.4125 32.8125,17.175 C32.325,15.9 32.475,14.775 30.4125,14.775 L25.2,14.775 L19.6125,14.775 L17.625,14.775 C15.9375,14.775 15.7125,15.9 15.225,17.175 C14.775,18.4125 13.875,19.875 13.4625,20.5125 C13.1625,20.9625 12.375,21.15 11.625,21.15 L11.625,17.2125 L9.6375,17.2125 L9.6375,16.8 C9.6375,14.1375 10.8375,11.7375 12.7125,10.125 C11.775,8.7375 11.25,7.0125 11.25,5.2125 L26.4375,5.2125 C33.075,5.2125 38.4375,10.575 38.4375,17.2125 L38.4375,17.625 L36.4125,17.625 L36.4125,17.5875 Z" id="Shape_6_" fill="#222222"></path>
                                <path d="M24,40.125 C21.525,40.125 19.5,38.1 19.5,35.625 L28.5,35.625 C28.5,38.1 26.475,40.125 24,40.125 Z" id="Shape_7_" fill="#FFC6C1"></path>
                            </g>
                        </g>
                    </g>
                </g>
            </g>
        </g>
    </g>
</svg>